# xmcd
#
# Track frame offsets:
#	150
#	16097
#	26375
#	50650
#	63982
#	92147
#	100815
#	118480
#	134952
#	148925
#	162415
#	175922
#	187827
#	200927
#	211192
#	223212
#	236315
#	248737
#
# Disc length: 3698
#
# Revision: 2
# Processed by: cddbd v1.5.1PL0 Copyright (c) Steve Scherf et al.
# Submitted via: EasyCDDAExtractor 5.0.7
# Normalized: r1:DSETVAR1
#
DISCID=120e7012
DTITLE=Various Artist - Best Of Blues
DYEAR=1942
DGENRE=Blues
TTITLE0=John Lee Hooker - 1969 Get Back Home In USA
TTITLE1=Memphis Slim - 1983 Boogie For Meade
TTITLE2=Otis Rush - 1974 Looking Back
TTITLE3=Eddy "The Chief" Clearwater - 1989 Boogie Woogie Baby
TTITLE4=Magic Slim and The Teardrops - 1976 Country Girl
TTITLE5=Buddy Guy and Junior Wells - 1977 Got My Mojo Working
TTITLE6=Memphis Slim - 1983 Slim's Blues
TTITLE7=Jimmy Rogers - 1973 Pretty Baby
TTITLE8=Billie Holiday - 1939 Long Gone Blues
TTITLE9=Big Bill Broonzy - 1940 Looking Up At Down
TTITLE10=Sonny Boy Williamson - 1937 Good Morning Little Schoolgirl
TTITLE11=Big Joe Turner - 1941 Blues On Central Avenue
TTITLE12=T-Bone Walker - 1942 Mean Old World
TTITLE13=Robert Johnson - 1937 Stop Breaking Down
TTITLE14=Rosetta Tharpe - 1940 That's All
TTITLE15=Dinah Washington - 1940 Rich Man's Bues
TTITLE16=Memphis Minnie - 1941 Me And My Chauffeur Blues
TTITLE17=Bessie Smith - 1928  Empty Bed Blues
EXTD=
EXTT0=
EXTT1=
EXTT2=
EXTT3=
EXTT4=
EXTT5=
EXTT6=
EXTT7=
EXTT8=
EXTT9=
EXTT10=
EXTT11=
EXTT12=
EXTT13=
EXTT14=
EXTT15=
EXTT16=
EXTT17=
PLAYORDER=
